<?xml version="1.0" encoding="utf-8"?>
<!-- Generator: Adobe Illustrator 25.0.1, SVG Export Plug-In . SVG Version: 6.00 Build 0)  -->
<svg version="1.1" id="Layer_1" xmlns="http://www.w3.org/2000/svg" xmlns:xlink="http://www.w3.org/1999/xlink" x="0px" y="0px"
	 viewBox="0 0 608.1 197.4" style="enable-background:new 0 0 608.1 197.4;" xml:space="preserve">
<style type="text/css">
	.st0{fill:#FFFFFF;}
</style>
<g>
	<path class="st0" d="M102.4,146.4L102.4,146.4c-0.1,0,33.4,11.7,70.7-16.7c29.6-22.5,65-31.2,65-31.2c-18.2-27.1-65-52.9-65-52.9
		c3.6,33.6-5,52.6-10.3,60.8c0.4-2.3,0.6-4.4,0.6-6c0-45.4-33.1-49-43.2-49c-27.8,0-44.4,18.8-44.5,50.2c0,4.9,1.2,11.6,4.1,18.3
		c-3.7-3.8-7.1-7.9-10-11.7C58.5,93.5,51.4,78.6,51.3,78.5l-9,4.2C43.5,85.1,68.2,136.5,102.4,146.4z M120.2,61.3
		c29,0,33.3,24.5,33.3,39c0,6.5-3.4,19.4-12.7,28.2c-4.6,4.4-10.1,7.2-16.4,8.6c-7.2,0.8-13.8-0.3-19.5-3.3
		c-13.3-7-19.2-23.1-19.2-32.3C85.7,68.3,104.4,61.3,120.2,61.3z"/>
	<path class="st0" d="M4.2,3.9v189.8h600V3.9H4.2z M591.5,180.9H17V16.6h574.5V180.9z"/>
	<rect x="267.1" y="38.7" class="st0" width="4.3" height="118.3"/>
	<polygon class="st0" points="319.1,87.1 309,87.1 309,70.1 318.3,70.1 318.3,63.3 309,63.3 309,47.7 318.7,47.7 318.7,40.7 
		300.8,40.7 300.8,94.2 319.1,94.2 	"/>
	<path class="st0" d="M332.4,84.6h8.6l1.3,9.5h7.6l-8.1-53.4H331l-7.6,53.4h7.8L332.4,84.6z M336.4,51.3h0.1l3.6,26.8h-7L336.4,51.3
		z"/>
	<path class="st0" d="M363.2,68.9l2.6,0.2c1.2,0.1,2,0.3,2.7,0.6c0.6,0.3,1,0.9,1.3,1.7c0.2,0.8,0.3,2,0.3,3.6c0,1.3,0,2.7,0,4.3
		c0,1.6,0,3.3,0,5c0,1.7,0,3.2,0.1,4.7s0.1,2.7,0.1,3.6c0,0.9,0.1,1.5,0.1,1.6h8.1c-0.1-0.2-0.1-0.7-0.2-1.6c0-0.9-0.1-2-0.1-3.2
		c0-1.3,0-2.5,0-3.8c0-1.3,0-2.4,0-3.3c0-0.9,0-1.5,0-1.7c0-2.6-0.1-4.8-0.3-6.6c-0.2-1.8-0.5-3.3-0.8-4.4c-0.4-1.1-0.9-2-1.5-2.6
		c-0.6-0.6-1.4-1-2.3-1.1c2-0.6,3.3-1.8,3.9-3.6c0.6-1.8,1-4.3,1-7.4c0-3-0.2-5.6-0.7-7.7c-0.4-2.1-1.3-3.7-2.7-4.8
		c-1.4-1.1-3.5-1.6-6.3-1.6h-13.4v53.4h8.1V68.9z M363.3,47h2.8c1.2,0,2.1,0.2,2.7,0.6c0.6,0.4,1,1.1,1.1,2.1c0.2,1,0.3,2.5,0.3,4.3
		v0.3c0,2.2-0.1,4-0.3,5.2c-0.2,1.2-0.5,2-1.1,2.5c-0.5,0.4-1.3,0.7-2.3,0.7h-3.2V47z"/>
	<polygon class="st0" points="403.3,87.2 393,87.2 393,40.7 384.9,40.7 384.9,94.2 403.3,94.2 	"/>
	<polygon class="st0" points="411.3,94.2 419.5,94.2 419.5,72.8 428,40.7 420.3,40.7 415.6,60.7 415.4,60.7 410.2,40.7 402.4,40.7 
		411.3,72.8 	"/>
	<polygon class="st0" points="451.8,69.3 459.1,69.3 459.1,94.2 467.2,94.2 467.2,40.7 459.1,40.7 459.1,62.3 451.8,62.3 
		451.8,40.7 443.7,40.7 443.7,94.2 451.8,94.2 	"/>
	<path class="st0" d="M479,93c1.8,1.2,4,1.8,6.8,1.8c2.8,0,5-0.6,6.7-1.8c1.7-1.2,3-2.9,3.8-5.2c0.8-2.3,1.2-5.2,1.2-8.6V54.8
		c0-2.3-0.2-4.4-0.6-6.2c-0.4-1.8-1.1-3.3-2-4.6s-2.1-2.2-3.6-2.9c-1.5-0.7-3.3-1-5.4-1c-2.9,0-5.2,0.6-6.9,1.8
		c-1.8,1.2-3,2.9-3.9,5c-0.8,2.2-1.2,4.8-1.2,7.9v24.4c0,3.4,0.4,6.3,1.2,8.6C476,90.1,477.3,91.8,479,93z M482.1,54.4
		c0-2.4,0.3-4.2,0.8-5.4s1.5-1.8,3-1.8c1.4,0,2.4,0.6,2.8,1.9c0.4,1.3,0.7,3.1,0.7,5.4v24.9c0,1.9-0.1,3.5-0.3,4.7
		c-0.2,1.2-0.5,2.2-1,2.8c-0.5,0.6-1.3,0.9-2.3,0.9c-1.1,0-1.8-0.3-2.4-0.9c-0.5-0.6-0.9-1.5-1.1-2.7c-0.2-1.2-0.3-2.8-0.3-4.8V54.4
		z"/>
	<path class="st0" d="M512.4,68.9l2.6,0.2c1.2,0.1,2,0.3,2.7,0.6c0.6,0.3,1,0.9,1.3,1.7c0.2,0.8,0.3,2,0.3,3.6c0,1.3,0,2.7,0,4.3
		c0,1.6,0,3.3,0,5c0,1.7,0,3.2,0.1,4.7s0.1,2.7,0.1,3.6c0,0.9,0.1,1.5,0.1,1.6h8.1c-0.1-0.2-0.1-0.7-0.2-1.6c0-0.9-0.1-2-0.1-3.2
		c0-1.3,0-2.5,0-3.8c0-1.3,0-2.4,0-3.3c0-0.9,0-1.5,0-1.7c0-2.6-0.1-4.8-0.3-6.6c-0.2-1.8-0.5-3.3-0.8-4.4c-0.4-1.1-0.9-2-1.5-2.6
		c-0.6-0.6-1.4-1-2.3-1.1c2-0.6,3.3-1.8,3.9-3.6c0.6-1.8,1-4.3,1-7.4c0-3-0.2-5.6-0.7-7.7c-0.4-2.1-1.3-3.7-2.7-4.8
		c-1.4-1.1-3.5-1.6-6.3-1.6h-13.4v53.4h8.1V68.9z M512.4,47h2.8c1.2,0,2.1,0.2,2.7,0.6c0.6,0.4,1,1.1,1.1,2.1s0.3,2.5,0.3,4.3v0.3
		c0,2.2-0.1,4-0.3,5.2c-0.2,1.2-0.5,2-1.1,2.5c-0.5,0.4-1.3,0.7-2.3,0.7h-3.2V47z"/>
	<polygon class="st0" points="541.5,75 541.1,61 552.7,94.2 558.5,94.2 558.5,40.7 551.2,40.7 551.2,58.2 551.7,72.8 540.4,40.7 
		534,40.7 534,94.2 541.5,94.2 	"/>
	<path class="st0" d="M308.4,132.2l2.5,0.1c1.1,0.1,1.9,0.2,2.5,0.5s1,0.9,1.2,1.6c0.2,0.8,0.3,1.9,0.3,3.4c0,1.2,0,2.6,0,4.1
		c0,1.5,0,3.1,0,4.7c0,1.6,0,3.1,0.1,4.5c0,1.4,0.1,2.5,0.1,3.4c0,0.9,0.1,1.4,0.1,1.5h7.7c-0.1-0.2-0.1-0.7-0.1-1.5
		c0-0.8-0.1-1.9-0.1-3.1c0-1.2,0-2.4,0-3.6c0-1.2,0-2.2,0-3.1s0-1.4,0-1.6c0-2.5-0.1-4.5-0.2-6.3c-0.2-1.7-0.4-3.1-0.8-4.2
		c-0.4-1.1-0.8-1.9-1.4-2.5c-0.6-0.6-1.3-0.9-2.2-1.1c1.9-0.6,3.1-1.7,3.7-3.4c0.6-1.7,0.9-4,0.9-7c0-2.9-0.2-5.3-0.6-7.3
		c-0.4-2-1.3-3.5-2.6-4.6c-1.3-1-3.3-1.6-5.9-1.6h-12.8v50.8h7.7V132.2z M308.4,111.3h2.6c1.2,0,2,0.2,2.6,0.5c0.5,0.4,0.9,1,1.1,2
		c0.2,1,0.3,2.3,0.3,4.1v0.3c0,2.1-0.1,3.8-0.3,4.9c-0.2,1.1-0.5,1.9-1,2.3c-0.5,0.4-1.2,0.6-2.2,0.6h-3.1V111.3z"/>
	<polygon class="st0" points="336.8,133.3 345.6,133.3 345.6,126.8 336.8,126.8 336.8,112 346.1,112 346.1,105.4 329,105.4 
		329,156.2 346.4,156.2 346.4,149.5 336.8,149.5 	"/>
	<path class="st0" d="M356.4,155c1.6,1.1,3.7,1.7,6.1,1.7c2.6,0,4.7-0.5,6.3-1.6c1.6-1.1,2.8-2.7,3.6-4.8c0.8-2.1,1.1-4.8,1.1-8
		v-7.2h-7.6v7.3c0,2.7-0.2,4.6-0.7,5.9c-0.5,1.2-1.3,1.8-2.7,1.8c-0.9,0-1.5-0.3-2-0.8c-0.5-0.5-0.8-1.4-1-2.5
		c-0.2-1.1-0.3-2.6-0.3-4.3v-23.7c0-2.3,0.2-4.1,0.7-5.4c0.5-1.3,1.4-1.9,2.8-1.9c1.3,0,2.1,0.6,2.5,1.8c0.4,1.2,0.6,3,0.6,5.5v6.5
		h7.5v-7c0-2.1-0.2-3.9-0.6-5.6c-0.4-1.7-1-3.1-1.9-4.3c-0.9-1.2-2-2.1-3.3-2.7c-1.4-0.6-3-0.9-4.9-0.9c-2.1,0-3.9,0.4-5.3,1.1
		c-1.4,0.7-2.6,1.7-3.5,3.1c-0.9,1.3-1.5,2.9-1.9,4.8c-0.4,1.9-0.6,4-0.6,6.3v22.1c0,3.1,0.4,5.7,1.2,7.9
		C353.5,152.2,354.7,153.9,356.4,155z"/>
	<path class="st0" d="M384.2,155.1c1.7,1.1,3.8,1.7,6.5,1.7c2.6,0,4.8-0.6,6.4-1.7c1.6-1.1,2.8-2.8,3.6-5c0.8-2.2,1.1-4.9,1.1-8.1
		v-23.2c0-2.2-0.2-4.2-0.6-5.9c-0.4-1.7-1-3.2-1.9-4.4c-0.9-1.2-2-2.1-3.4-2.8s-3.1-1-5.2-1c-2.7,0-4.9,0.6-6.6,1.7
		c-1.7,1.1-2.9,2.7-3.7,4.8c-0.8,2.1-1.2,4.6-1.2,7.5V142c0,3.2,0.4,5.9,1.2,8.1C381.3,152.3,382.5,153.9,384.2,155.1z M387.1,118.3
		c0-2.3,0.2-4,0.7-5.2c0.5-1.2,1.5-1.7,2.9-1.7c1.4,0,2.3,0.6,2.7,1.8c0.4,1.2,0.6,2.9,0.6,5.1V142c0,1.8-0.1,3.3-0.2,4.5
		c-0.2,1.2-0.5,2.1-1,2.6c-0.5,0.6-1.2,0.9-2.2,0.9c-1,0-1.8-0.3-2.3-0.8c-0.5-0.6-0.8-1.4-1-2.6c-0.2-1.2-0.2-2.7-0.2-4.5V118.3z"
		/>
	<path class="st0" d="M426.9,106.9c-1.3-1-3.3-1.6-5.9-1.6h-12.8v50.8h7.7v-24l2.5,0.1c1.1,0.1,1.9,0.2,2.5,0.5s1,0.9,1.2,1.6
		c0.2,0.8,0.3,1.9,0.3,3.4c0,1.2,0,2.6,0,4.1c0,1.5,0,3.1,0,4.7c0,1.6,0,3.1,0.1,4.5c0,1.4,0.1,2.5,0.1,3.4c0,0.9,0.1,1.4,0.1,1.5
		h7.7c-0.1-0.2-0.1-0.7-0.1-1.5c0-0.8-0.1-1.9-0.1-3.1c0-1.2,0-2.4,0-3.6c0-1.2,0-2.2,0-3.1s0-1.4,0-1.6c0-2.5-0.1-4.5-0.2-6.3
		c-0.2-1.7-0.4-3.1-0.8-4.2c-0.4-1.1-0.8-1.9-1.4-2.5c-0.6-0.6-1.3-0.9-2.2-1.1c1.9-0.6,3.1-1.7,3.7-3.4c0.6-1.7,0.9-4,0.9-7
		c0-2.9-0.2-5.3-0.6-7.3C429.1,109.5,428.2,108,426.9,106.9z M422.5,118.3c0,2.1-0.1,3.8-0.3,4.9c-0.2,1.1-0.5,1.9-1,2.3
		c-0.5,0.4-1.2,0.6-2.2,0.6h-3.1v-14.9h2.6c1.2,0,2,0.2,2.6,0.5c0.5,0.4,0.9,1,1.1,2c0.2,1,0.3,2.3,0.3,4.1V118.3z"/>
	<path class="st0" d="M454.1,154.5c1.6-1.1,2.8-2.7,3.5-4.9c0.7-2.2,1.1-5,1.1-8.3l0-22.9c0-2.8-0.4-5.1-1.1-7
		c-0.7-1.9-1.8-3.4-3.4-4.5c-1.6-1-3.6-1.5-6.2-1.5h-11.4v50.8h11.1C450.4,156.2,452.5,155.6,454.1,154.5z M444.3,150.2v-38.9h2.3
		c1.6,0,2.7,0.6,3.3,1.7c0.6,1.1,1,3,1,5.6l0,25.1c0,1.7-0.1,3-0.4,4c-0.3,0.9-0.8,1.6-1.4,1.9c-0.6,0.4-1.4,0.5-2.3,0.5H444.3z"/>
	<rect x="465.2" y="105.4" class="st0" width="7.7" height="50.8"/>
	<polygon class="st0" points="496.2,122 496.7,135.8 485.9,105.4 479.9,105.4 479.9,156.2 487,156.2 487,137.9 486.6,124.6 
		497.6,156.2 503.1,156.2 503.1,105.4 496.2,105.4 	"/>
	<path class="st0" d="M521,104.8c-2.1,0-3.8,0.3-5.3,1c-1.5,0.6-2.7,1.6-3.6,2.8c-0.9,1.2-1.6,2.8-2,4.5c-0.4,1.8-0.6,3.8-0.6,6.1
		v22.1c0,5.4,0.9,9.3,2.8,11.8c1.9,2.4,4.3,3.6,7.4,3.6c1.8,0,3.3-0.5,4.7-1.4c1.4-1,2.3-2.3,2.7-4.1l1.2,5h3.5v-27.7h-10.7v5.6h3.9
		v6.8c0,3.3-0.3,5.7-0.9,7.1c-0.6,1.4-1.6,2.1-3.1,2.1c-1.5,0-2.5-0.7-3-2.1c-0.5-1.4-0.7-3.7-0.7-6.9v-22c0-2.9,0.3-4.9,0.8-6
		c0.6-1.1,1.6-1.7,3-1.7c1.3,0,2.2,0.5,2.7,1.4c0.5,1,0.7,2.6,0.7,4.9v5.3h7.2v-3.6c0-2.3-0.1-4.4-0.4-6.2c-0.3-1.8-0.8-3.4-1.6-4.6
		c-0.8-1.3-1.8-2.2-3.2-2.9C525.1,105.1,523.2,104.8,521,104.8z"/>
	<path class="st0" d="M552.7,128.3l-4.2-4.5c-0.8-0.9-1.5-1.7-2.1-2.4s-1-1.5-1.2-2.2c-0.3-0.8-0.4-1.7-0.4-2.7
		c0-1.2,0.1-2.1,0.3-2.9c0.2-0.7,0.6-1.3,1.1-1.6c0.5-0.4,1.2-0.5,2-0.5c0.8,0,1.5,0.3,1.9,0.8c0.4,0.5,0.7,1.3,0.9,2.3
		s0.2,2.3,0.2,3.8v3.6h7.1v-3.1c0-2.2-0.2-4.2-0.5-5.9c-0.3-1.7-0.8-3.2-1.6-4.4c-0.7-1.2-1.8-2.1-3.1-2.7c-1.3-0.6-3-0.9-5-0.9
		c-2.7,0-4.9,0.5-6.4,1.4c-1.6,1-2.7,2.4-3.3,4.2c-0.7,1.8-1,4.1-1,6.8c0,1.8,0.2,3.5,0.7,5c0.5,1.5,1.2,2.8,2,4.1
		c0.8,1.2,1.8,2.4,2.8,3.4l3.8,3.9c1.6,1.7,2.8,3.3,3.6,4.9s1.2,3.3,1.2,5.2c0,1.5-0.1,2.8-0.2,3.7c-0.2,1-0.5,1.6-1,2.1
		s-1.2,0.6-2.1,0.6c-1.4,0-2.3-0.6-2.7-1.8c-0.5-1.2-0.7-3.2-0.7-5.9v-5.1h-7.3v4.5c0,2.3,0.2,4.4,0.5,6.3c0.3,1.8,0.9,3.4,1.7,4.7
		c0.8,1.3,1.9,2.3,3.3,2.9c1.4,0.7,3.2,1,5.3,1c2.7,0,4.8-0.5,6.3-1.6c1.5-1.1,2.6-2.6,3.3-4.7c0.7-2.1,1-4.6,1-7.7
		c0-2.9-0.6-5.5-1.7-7.8C556.3,132.7,554.7,130.4,552.7,128.3z"/>
</g>
</svg>
